<svg xmlns="http://www.w3.org/2000/svg" viewBox="0 0 487.06 499.64">
  <defs>
    <style>
      .cls-1 {
        isolation: isolate;
      }

      .cls-2, .cls-3 {
        fill: #2d363a;
      }

      .cls-3 {
        opacity: 0.7;
        mix-blend-mode: multiply;
      }
    </style>
  </defs>
  <g class="cls-1">
    <g id="Layer_1" data-name="Layer 1">
      <path class="cls-2" d="M400.1,258.22H373.84a132.89,132.89,0,0,0,0-29.3H487.06L465.18,207H369.49A131,131,0,0,0,357,177.74h78.92L414,155.86H341a132.53,132.53,0,0,0-9.84-9.85V73.06L309.28,51.18v78.89A129.77,129.77,0,0,0,280,117.54V21.88L258.11,0V113.19a131.28,131.28,0,0,0-29.3,0V0L206.93,21.88v95.66a130,130,0,0,0-29.3,12.53V51.18L155.75,73.06V146a132.53,132.53,0,0,0-9.84,9.85H73.06L51.18,177.74H130A130,130,0,0,0,117.43,207H21.88L0,228.92H113.08l-.06.49-.09,1c-.43,4.33-.67,8.72-.67,13.16a131.29,131.29,0,0,0,.83,14.65H0L21.88,280.1H54a2.79,2.79,0,0,0-.62,2.52c.06.21.18.25,0,.45a2.34,2.34,0,0,1,.3,1.48v.15c.35.9-.29,3.27-.29,3.27-.37,1.32-1.69,9.19-2.28,11.76a5.69,5.69,0,0,1-.2.73v.15c-.35,2-2.19,12.23-3.42,18.9-.56,3.05-1,5.35-1.1,5.79v.15c-.19,3.48-.36,6.43-.25,10.4v.29a17.31,17.31,0,0,1-.24,3.95c-.49,3-1.5,5.89-2.06,9.25-.74,4.46-.43,8.93-2.22,11.19-.86,1.09-3.16,1.46-4.45,2.1-1.53.77-3.79,1.3-5.34,2.25-.43.26-.63.74-1,1-1.36,1-3.15,1.73-3.25,4-.56-.13-.7.49-1,.15-2.09,1.16-1,4.19-1.75,7.43a8.61,8.61,0,0,0-.44,3.42c.14,1.37,1.05,2.46,1.2,3.87s-.17,2.45.16,3.71c.18,0,.13-.28.15-.45.73.47,1.35,3.92-.29,3.27-.29.86.73,1.16.31,1.64.07.22.19-.06.44,0-.07,1.15,1,3.2-.13,4.16.2.19.7-.58,1.19-.6.21.07,0,.13,0,.3.5.1.24-.55.59-.6s.31.39.6.45a4.46,4.46,0,0,1,.89-.9c.65.53.43,1.6.15,2.52.44,1.45,1.21,2.56,3,2.67-.78-.62-2.16-1.38-1.64-2.82,1.84.64,1.72,3.24,4,3.39h0l-.25-.1c-.84-.32-1.13-1.39-1.24-2.28l-.15-.26a.39.39,0,0,1,.14-.4.36.36,0,0,1,.08-.12,4.66,4.66,0,0,1,0-1.3.64.64,0,0,1,.26-.39v0a1,1,0,0,1,.74-.15c.21.21.15.68.15,1.11a12.82,12.82,0,0,0,.68,1.82l0,0c0-.12,0-.26,0-.38a3.33,3.33,0,0,1-.05-.56c-.15-.41-.23-.79.43-.93a.36.36,0,0,1,.11.2.38.38,0,0,1,.38.43v.36c0,.14,0,.28,0,.42a.31.31,0,0,1,.36.22c.29-.31.23-1,.74-1a6.81,6.81,0,0,1,.9,3.56,5.07,5.07,0,0,0,.37-1.16c.09-.53.88-.38.9.12q0,.31,0,.63a1.51,1.51,0,0,1,.93.08.44.44,0,0,1,.41.28l0,.09c1.1-.24,2.38-.63,2.16-.06,2.05,1.78,1,6.16,6.62,11.74,3.92,3.88,11,7.69,15.76,9.24s19.78,5.4,22.15,6.37c5.07,2,11.55,6.07,12.7,7.44.91,1.1-.34,1.88.66,2.75a54.08,54.08,0,0,0,3.3,8.31v1.34c-1.92,1.33-5.21,3.88-2.94,6.69a6.79,6.79,0,0,0,1.35,4.75,3.81,3.81,0,0,0,1.64,3.41,7.13,7.13,0,0,1,0,3c-3.44,1.64-8.5,2.47-10.69,5.39a4.41,4.41,0,0,0-.88,2.38c0,.73.52.94.75,1.63.56,1.64.45,3.82,1.21,5.79a11.13,11.13,0,0,1,1.2,3.26v.15c.3,2.14,1.4,4.15,2.26,6.39.53,1.39.79,2.89,1.35,4,2.12,4.18,7.4,4.79,12.2,2.92h.14c2.51-1.73,5.9-3.29,5.47-7.45V491c-.24-1.92-.33-3.92-.46-5.5v-.15a7,7,0,0,1-.45-1.94v-.14c-.21-1.18-1.22-3.14-1.8-4.9a20.58,20.58,0,0,1-1-3.71c-.12-1.69,1-3.17.73-4.61-.45-2.06-2.85-2.22-4.47-3.25-.24-2.27,1.63-2.81,1.46-5.21-.15-2.24-1.25-5.74-1.66-7.86-.29-1.53-1.05-3.61-.91-5.06.12-1.27,1.13-2.68,1.62-3.88a15.37,15.37,0,0,1,1.77-3.56c1.49.3,11.89,5.59,17,7,7.35,2.05,14-.83,20.12-4.42.53-.31,1.06-.62,1.58-.94,4-2.65,9.39-3.38,14.94-4.15,2.79-.39,5.62-.78,8.36-1.43,4-.95,7.72-2,11.42-3.08,3-.86,6-1.71,9.07-2.49,1.33-.35,3.42-.77,4.61,0s2.44,3.07,3.58,4.29a58.59,58.59,0,0,0,9.22,8.26c.44.31.9.62,1.36.92a40.74,40.74,0,0,0,12.51,5.3,48.12,48.12,0,0,1,5.91,1.95c4.36,1.72,8.41,3.88,12.55,5.71.07.54.42.82.15,1.34.46,1.07,2.91.15,3.71.88.27.49-.07.66,0,1.33.28.77,1.32.76,2.08,1,1.28.32,1.54,2.05,2.28,3.27a8,8,0,0,0,2.74,2.57,5.65,5.65,0,0,1,2,2.07,9.59,9.59,0,0,0,.92,1.56v14.9L280,465.25V369.6a130.22,130.22,0,0,0,29.29-12.53V436l21.89-21.88V341.13a134.47,134.47,0,0,0,9.84-9.85h73l21.88-21.88H357a131,131,0,0,0,12.53-29.3h95.69l21.88-21.88h-87ZM31.91,397.87c-.71.2-1-.79-.6-1.18v-.16c.07-.47.23-.86.89-.74C32.58,396.43,32.09,397.3,31.91,397.87Zm3.12-1.2c-.68-.07-.61-.85-.31-1.19h.45C35.21,396,35.49,396.42,35,396.67ZM76.17,346c-.46,1.26-.91,2.4-1.39,3.67-.15.4-.31.8-.47,1.23,0,0-1.78,7.4-2.12,8.2a8,8,0,0,1-.15,1c0,2.56-1.59,4.21-3,6.26a27.31,27.31,0,0,0-2.83,6.27A68.37,68.37,0,0,1,63.2,381c-1.33.05-.68-1.41-.9-2.52-.14-.72-1-1.51-1-2.22s.8-1.82.46-2.72c-.3-.68-2.14-1.31-3.45-2.18-.82-.55-1.26-2.3-2.09-3.56s-2.31-2.05-2.25-3.85l1.35-7.4.11-.63c.08-.81,2-11.92,2.18-13.83a12.71,12.71,0,0,1,.58-4.16L59,334c.07-.45.25-7.63.43-14.51.16-6.41.31-12.54.36-12.69,1.36.52,1.06,2.71,2.24,3.41.14.3.31.58.45.88.71,1.18,2.34,1.44,2.54,3.12v.15c.36.13.4.59.45,1,1.2.58,1.51,2.05,2.09,3.26.46.26.87.56,1.32.83a5.18,5.18,0,0,0,1.51.65c1.23-.1,1.66.62,2.53.88a3.31,3.31,0,0,1,2.53,1.77c.75.69,1.59,1.29,2.39,1.92,1.13.33,1.38,1.9,2.68,1.63a3.91,3.91,0,0,1,1.34,1,82.64,82.64,0,0,1-2.2,8.34c-.11.13-1.73,6.13-2.94,8.48v.14C76.55,344.93,76.36,345.47,76.17,346ZM110,462.38c-.76,1.33-1.54.83-3,.46-1-.27-1.93-.11-2.37-.44-1.24-.94-.65-4.23-1.37-6.09-.5-1.32-1.42-2.6-1.35-3.42.16-1.52,2.26-2.15,3-3a8.7,8.7,0,0,0,2.67.74A118.46,118.46,0,0,1,110,462.38Zm-2.43-14.26a13.53,13.53,0,0,1-1.94-.14c-1.09-.7-1.39-2.45-1.94-3.86s-1.72-2.85-.91-4c2.11,1.35,5.83,0,7.88.86C109.8,443.5,109.12,446.24,107.59,448.12ZM117,349c-4.65.52-6.41,4.62-7.69,9,0,0-.58,4.29-1.08,7.85-.31,2.28-.59,4.26-.66,4.64,0,0-2.21,18.83-1.68,28.69.09,1.74.85,4.21-.28,5.64q-7.38-3.89-15.33-7.23c-1.15-4.78-.56-6.68-4.78-9.25-1.09-.66-8.66-1.22-7.6-2.59v-.14c0-.55,1.63-7.63,1.77-8,.63-2.89,3-13.38,3.35-14.13a24.18,24.18,0,0,1,.91-4.51,3.55,3.55,0,0,1,.26-.55,44.62,44.62,0,0,0,1.62-4.9c.08-.37.66-3.54,1.38-7.4,1.22-6.62,2.85-15.29,3.14-15.65a1.35,1.35,0,0,1,1,.44,3.66,3.66,0,0,1,2.53.58v-.15c.35.3,1.33,0,1.64.3h.15a6.5,6.5,0,0,1,3.71.13h.15c.92.38,2.48-.42,3.27.28h.3a19.57,19.57,0,0,1,3.12,1.18c.59,0,.81.48,1.19.74,3.31-.54,8,.31,11.3,1.45.46.19,1.2.09,1.49.43.61,0,.61.59,1.2.6.36.13.85.13.89.59a.93.93,0,0,1,.74.14c.77.32,1.49.69,2.23,1a4,4,0,0,1,1.34.43h.15c.69,0,1,.3,1.64.3h.3c2.6-.06,4.69,2.32,6.7,3.69,1.31.9,2.92,1.16,3.42,2.08.47-.08.59.2.89.29.45.45,1.15.65,1.59,1.12a1.31,1.31,0,0,1,.2.21c.41-.11.3.29.6.29.57.17,1.2.28,1.48.74.6.19.83.76,1.35,1a5.73,5.73,0,0,1,2.52,1.18,3.78,3.78,0,0,1,1.34.44,2.5,2.5,0,0,1,1.79,1.18v.15c.36.53,1.22.57,1.64,1h.15c.25.35.83.37,1,.74h.3a3.34,3.34,0,0,1,1.64.59c.64.2,1.19.49,1.34,1.18.34.25.06,1.13.15,1.64-.46,1.29-3,.82-4.45.6-2.81-.41-19-4.64-21.87-5.41C126.67,350.54,122.72,348.34,117,349Zm134.41,98c-3.19-.75-11.73-6.07-19.79-11.47-8.52-5.69-16.51-11.46-17.16-12-.83-.73-1.79-1.44-2.62-2.12a14,14,0,0,1-1.11-1c-2.74-2.81-3.54-7.88-8.49-8.29-3.59-.31-8.12.21-12.34,0-1.53-.06-3-.14-4.54-.24-6.57-.41-12.95-1-19.78-1.06-1.67,0-3.37,0-5.11.07-7.45.31-14.08,2.36-22.28,2.61a12.56,12.56,0,0,1-1.05-3.71c-1.15-7.37-5.28-21.68-5.28-21.68-.58-1.85-1.52-8.16-1.52-8.16a63.21,63.21,0,0,1-.48-10.41c1.61.12,10.07,1.86,13.23,2s6.29-1.26,7.13-1.37c0,0,5.82-.55,10-.73,1,0,1.92-.06,2.63-.05.53.84-.51,1.23-.3,2.23a.72.72,0,0,0,.15.27l.22.22a4,4,0,0,0,1.13.55c.4.09.92,0,1.19.29.93-.41,1.13-1.54,1.62-2.38.67-.08.75.44.75,1v.15c1.55.58,1.8-1.35,2.37-2.24a11.09,11.09,0,0,1,2.09.59,21.67,21.67,0,0,1,4,.73c.31-.33,2.37.44,2.68,1,0,.24.14.25.15.44.12,1.42,1.46,1.62,1.79,2.82v.15c.88,2,2.73,3,3.59,5v.15c.13.76.69,1.1,1,1.63.1.31.4.66.15.89,1.16,1.69,4,2.4,5.52,3.25.23-.05.25.14.44.15a3.2,3.2,0,0,1,2.09,1.92v.15c3.27,1.33,5.48,3.72,8.49,5.31V394c1.28,1.65,4,1.86,5.66,3.1.27.13.38.41.89.29,2.31,1,4.05,2.08,6.69,1.76,1.27-2.91.24-6.77,1.16-9.66,1.33.14,1.82,1.14,2.38,2.07v.14c.7.44,1.49.78,1.63,1.79v.14a3.46,3.46,0,0,0,1.5,1.48v.15c.69.36.91,1.18.9,2.22v.15c.62,1,1.5,2.57,1.21,4v.15c1.13,1.1-.14,3.16.31,4.76.35.48,1.16.51,1.64.88v.6c.1,2.24,1.45,4.71-.57,6.24v.15c.34.11.45,1.22.15,1.49V416c-.06.31.11.39.15.59,2,.13,2.43,1.83,3.43,3v.14c.36.85,1.52.88,2.46,1.14.64.19,1.18.48,1.26,1.23,1.35.38,2.74.72,3.28,1.92a39.11,39.11,0,0,0,5.66,3.25,15.59,15.59,0,0,0,2.24,3.11c-.07.47.27.52.15,1,.41.73,1.22,1.07,1.64,1.78,0,.52.43.66.46,1.18a14.38,14.38,0,0,1,.74,1.34v.15a18.45,18.45,0,0,1,2.1,2.82v.14c1.16.83,1.32,2.66,2.1,3.85v.46C251.34,444.41,252.07,445.92,251.44,447Z"/>
      <path class="cls-2" d="M31.31,396.53v.16c-.38.39-.11,1.38.6,1.18.18-.57.67-1.44.29-2.08C31.54,395.67,31.38,396.06,31.31,396.53Z"/>
      <path class="cls-3" d="M31.31,396.53v.16c-.38.39-.11,1.38.6,1.18.18-.57.67-1.44.29-2.08C31.54,395.67,31.38,396.06,31.31,396.53Z"/>
      <path class="cls-2" d="M34.72,395.48c-.3.34-.37,1.12.31,1.19.46-.25.18-.69.14-1.19Z"/>
      <path class="cls-3" d="M34.72,395.48c-.3.34-.37,1.12.31,1.19.46-.25.18-.69.14-1.19Z"/>
    </g>
  </g>
</svg>
